<svg id="Layer_1" height="512" viewBox="0 0 512 512" width="512" xmlns="http://www.w3.org/2000/svg" data-name="Layer 1"><path d="m452.184 124.947a16.04 16.04 0 0 1 -16 16h-.5a16 16 0 0 1 0-32.005h.5a15.994 15.994 0 0 1 16 16zm-95.848 0a16.041 16.041 0 0 1 -16 16h-.5a16 16 0 0 1 0-32.005h.5a16 16 0 0 1 16 16zm47.913 0a16.03 16.03 0 0 1 -16 16h-.5a16 16 0 0 1 0-32.005h.5a15.984 15.984 0 0 1 16 16zm-16.249 91.083a92.084 92.084 0 1 0 -71.145-33.718 15.935 15.935 0 0 1 3.629 10.144v34.5l25.018-14.43a16.209 16.209 0 0 1 13.108-1.358 90.948 90.948 0 0 0 29.39 4.862zm0-216.03c-68.373 0-124 55.65-124 124.017a124.135 124.135 0 0 0 24.489 73.939v56.721a16 16 0 0 0 24 13.859l43.006-24.86a124.159 124.159 0 0 0 156.505-119.658c0-68.367-55.615-124.018-124-124.018zm-227.87 137.234-10.458 12a487.413 487.413 0 0 1 -42.992-111.656q2.893-2.037 5.779-3.858a9.089 9.089 0 0 1 5.151-1.715 10.089 10.089 0 0 1 3.151.5 9.038 9.038 0 0 1 6.122 5.716l34.962 89.079a9.235 9.235 0 0 1 -1.715 9.93zm45.878 168.737a400.242 400.242 0 0 1 -75.753-104.871 31.216 31.216 0 0 1 -1.693-23.861 523.842 523.842 0 0 1 -49.628-119.373c-12.409 9.716-24.161 19.717-34.284 29.434a39.059 39.059 0 0 0 -12.259 34.577c21.196 162.662 195.041 336.543 357.709 357.761a39.192 39.192 0 0 0 34.634-12.288c9.637-10.144 19.681-21.86 29.368-34.29a519.3 519.3 0 0 1 -119.338-49.65 31.21 31.21 0 0 1 -23.86-1.643 401.59 401.59 0 0 1 -104.893-75.8zm178.7 44.149 89.048 35a9.733 9.733 0 0 1 4.55 14.431q-1.906 2.893-3.886 5.787a488.29 488.29 0 0 1 -111.658-43.006l12.016-10.43a9.253 9.253 0 0 1 9.93-1.786zm-193.081-234.532-34.962-89.083a41.729 41.729 0 0 0 -61.865-19.505c-25.589 16.933-51.921 37.721-72.231 57.081-17.195 16.431-24.975 38.362-21.918 61.937 11 84.3 60.187 175.524 135.005 250.32 74.8 74.795 166.044 124.017 250.312 135.018a78.855 78.855 0 0 0 9.973.643c19.739 0 37.912-7.858 51.964-22.575 19.346-20.288 40.156-46.649 57.095-72.224a41.735 41.735 0 0 0 -19.539-61.865l-89.048-35a41.287 41.287 0 0 0 -42.627 7.358l-28.986 25.213c-70.295-35-130.654-95.37-165.73-165.737l25.2-28.932a41.1 41.1 0 0 0 7.357-42.649z" fill="#fc0005" fill-rule="evenodd"/></svg>