<svg enable-background="new 0 0 512 512" viewBox="0 0 512 512" xmlns="http://www.w3.org/2000/svg" xmlns:xlink="http://www.w3.org/1999/xlink"><linearGradient id="SVGID_1_" gradientUnits="userSpaceOnUse" x1="84.653" x2="427.495" y1="427.499" y2="84.657"><stop offset=".00000013319" stop-color="#8b0006"/><stop offset="1" stop-color="#ff1e22"/></linearGradient><g id="_x34_8_Globe"><path d="m498.579 255.692c-.18-133.254-108.725-242.279-242.556-242.279-.003 0-.005 0-.007 0-.001 0-.003 0-.004 0s-.001 0-.001 0h-.001c-.001 0-.001 0-.002 0-.003 0-.006.001-.009.001-133.913.013-242.398 109.086-242.578 242.278-.003.105-.031.203-.031.308 0 .1.027.193.029.293.067 60.481 22.432 115.804 59.244 158.297.619.989 1.388 1.857 2.267 2.616 44.462 49.881 109.141 81.373 181.067 81.38.003 0 .006.001.009.001h.002.001.001.004.007c75.699 0 145.693-34.399 192.045-94.375 3.915-5.066 2.981-12.351-2.089-16.271-5.07-3.915-12.347-2.981-16.271 2.089-1.809 2.34-3.709 4.579-5.596 6.833h-64.92c13.35-36.569 21.545-80.838 22.674-129.264h93.189c-.897 17.218-3.762 34.21-8.613 50.652-1.817 6.144 1.695 12.596 7.839 14.408 6.153 1.826 12.592-1.695 14.408-7.839 6.547-22.178 9.873-45.238 9.896-68.552.002-.092.027-.177.027-.268 0-.105-.028-.203-.031-.308zm-410.59-140.555h64.831c-13.353 36.57-21.552 80.838-22.685 129.264h-93.211c2.573-49.067 21.36-93.893 51.065-129.264zm232.121-68.951c30.446 9.321 58.075 25.115 81.326 45.752h-51.856c-8.5-18.013-18.437-33.429-29.47-45.752zm3.28 45.753h-55.782v-53.817c21.047 5.313 40.378 24.837 55.782 53.817zm-78.98 0h-55.794c15.408-28.979 34.743-48.502 55.794-53.816zm-81.986 0h-51.845c23.248-20.631 50.873-36.422 81.313-45.743-11.032 12.321-20.968 27.733-29.468 45.743zm-32.29 175.66c1.129 48.425 9.326 92.694 22.679 129.264h-64.837c-29.706-35.372-48.491-80.198-51.056-129.264zm32.282 152.462c8.5 18.01 18.437 33.422 29.47 45.744-30.443-9.322-58.07-25.113-81.32-45.744zm105.192 53.817v-53.817h55.789c-15.405 28.981-34.739 48.504-55.789 53.817zm-23.198 0c-21.054-5.314-40.392-24.836-55.8-53.816h55.8zm-66.494-77.015c-14.215-35.616-23.322-80.618-24.576-129.264h91.069v129.264zm-24.574-152.462c1.259-48.647 10.366-93.649 24.581-129.264h66.487v129.264zm114.266-129.264h66.472c14.212 35.615 23.317 80.617 24.575 129.264h-91.047zm91.574 0h64.839c29.699 35.371 48.482 80.197 51.055 129.264h-93.213c-1.133-48.425-9.33-92.694-22.681-129.264zm42.476 304.924c-23.72 21.157-51.501 36.738-81.647 45.867 11.076-12.342 21.05-27.796 29.577-45.867zm-67.57-23.198h-66.479v-129.264h91.049c-1.255 48.646-10.359 93.648-24.57 129.264z" fill="url(#SVGID_1_)"/></g><g id="Layer_1"/></svg>