<svg id="Layer_1" height="512" viewBox="0 0 512 512" width="512" xmlns="http://www.w3.org/2000/svg" xmlns:xlink="http://www.w3.org/1999/xlink" data-name="Layer 1"><linearGradient id="GradientFill_1" gradientUnits="userSpaceOnUse" x1="-9.314" x2="401.006" y1="455.976" y2="45.656"><stop offset="0" stop-color="#e81e25"/><stop offset=".108" stop-color="#ea3522"/><stop offset=".416" stop-color="#f1711c"/><stop offset=".678" stop-color="#f59d17"/><stop offset=".881" stop-color="#f8b814"/><stop offset="1" stop-color="#f9c213"/></linearGradient><path d="m495.635 200.937c0-75.5-57.348-137.857-130.772-145.81-.061-4.536-.159-8.682-.318-9.931a51.853 51.853 0 0 0 -51.329-45.196h-245.107a51.8 51.8 0 0 0 -51.744 51.744v408.512a51.8 51.8 0 0 0 51.744 51.744h245.107a51.8 51.8 0 0 0 51.744-51.744v-113.521c73.377-7.998 130.675-70.328 130.675-145.798zm-146.675-111.619c6.459 0 18.471 15.624 26.272 46.209h-52.543c7.801-30.585 19.811-46.209 26.271-46.209zm-59.041 46.209h-35.094a115.389 115.389 0 0 1 47.9-39.519 188.682 188.682 0 0 0 -12.806 39.519zm-55.633 65.41a114.331 114.331 0 0 1 4.969-33.41h45.672a336.428 336.428 0 0 0 0 66.819h-45.672a114.33 114.33 0 0 1 -4.969-33.409zm55.633 65.409a188.682 188.682 0 0 0 12.8 39.519 115.389 115.389 0 0 1 -47.9-39.519zm59.041 46.209c-6.458 0-18.47-15.624-26.271-46.209h52.543c-7.801 30.585-19.813 46.209-26.272 46.209zm-31.935-78.209a317.8 317.8 0 0 1 0-66.819h63.875a317.8 317.8 0 0 1 0 66.819zm95.969-66.819h45.672a114.8 114.8 0 0 1 0 66.819h-45.672a336.428 336.428 0 0 0 0-66.819zm30.1-32h-35.094a188.74 188.74 0 0 0 -12.8-39.519 115.389 115.389 0 0 1 47.9 39.519zm-374.985-103.527h245.107a19.788 19.788 0 0 1 19.526 16.81c.04 1.082.078 3.5.111 6.34-73.325 8.05-130.567 70.35-130.567 145.787 0 75.47 57.3 137.8 130.674 145.8v15.029h-284.595v-310.022a19.766 19.766 0 0 1 19.744-19.744zm245.107 448h-245.107a19.766 19.766 0 0 1 -19.744-19.744v-66.492h284.595v66.492a19.766 19.766 0 0 1 -19.744 19.744zm81.984-174.135a188.74 188.74 0 0 0 12.8-39.519h35.1a115.389 115.389 0 0 1 -47.9 39.519zm-164.537 131.815a16 16 0 0 1 -16 16h-48a16 16 0 0 1 0-32h48a16 16 0 0 1 16 16z" fill="url(#GradientFill_1)"/></svg>