<svg id="Layer_1" height="512" viewBox="0 0 512 512" width="512" xmlns="http://www.w3.org/2000/svg" data-name="Layer 1"><path d="m256.082.083c141.383 0 256 114.587 256 256.035 0 141.377-114.616 255.964-256 255.964s-255.999-114.582-255.999-255.964c0-141.448 114.622-256.035 255.999-256.035zm-93.708 178.8a25.8 25.8 0 1 0 25.8 25.8 25.827 25.827 0 0 0 -25.8-25.8zm0 61.7a35.9 35.9 0 1 0 -35.9-35.893 35.938 35.938 0 0 0 35.9 35.893zm152.239 63.6h92.66a57.705 57.705 0 0 0 -109.732-19.435 68.356 68.356 0 0 1 17.072 19.435zm-116.013 29.104h114.959a57.7 57.7 0 0 0 -114.955 0zm-93.7-29.114h92.654a68.346 68.346 0 0 1 17.078-19.435 57.705 57.705 0 0 0 -109.732 19.435zm244.9-62.743a67.769 67.769 0 0 0 -60.745 37.689 67.651 67.651 0 0 0 -65.93 0 67.8 67.8 0 0 0 -128.539 30.1 5.046 5.046 0 0 0 5.048 5.045h93.082a67.467 67.467 0 0 0 -4.414 24.069 5.043 5.043 0 0 0 5.045 5.044h125.48a5.045 5.045 0 0 0 5.048-5.044 67.472 67.472 0 0 0 -4.422-24.069h93.082a5.046 5.046 0 0 0 5.048-5.045 67.867 67.867 0 0 0 -67.783-67.789zm0-62.551a25.8 25.8 0 1 0 25.8 25.8 25.833 25.833 0 0 0 -25.8-25.8zm0 61.7a35.9 35.9 0 1 0 -35.9-35.896 35.938 35.938 0 0 0 35.9 35.893zm-93.713-32.584a25.8 25.8 0 1 0 25.8 25.8 25.831 25.831 0 0 0 -25.8-25.8zm0 61.7a35.9 35.9 0 1 0 -35.9-35.9 35.935 35.935 0 0 0 35.895 35.895z" fill="#f44336" fill-rule="evenodd"/></svg>